<svg width="144" height="144" viewBox="0 0 144 144" fill="none" xmlns="http://www.w3.org/2000/svg">
<path d="M88.524 60C94.323 60 99.024 64.701 99.024 70.5V98.994C99.024 113.909 86.9328 126 72.018 126C57.1027 126 45.0116 113.909 45.0116 98.994V70.5C45.0116 64.701 49.7126 60 55.5116 60H88.524ZM42.7877 59.9944C40.691 62.5308 39.3382 65.7048 39.0634 69.1824L39.0116 70.5V98.994C39.0116 104.074 40.1591 108.886 42.2092 113.184C40.2346 113.718 38.1539 114 36.0074 114C22.7485 114 12 103.252 12 89.9928V70.5C12 64.9908 16.2427 60.4728 21.6388 60.0348L22.5 60L42.7877 59.9944ZM101.248 59.9944L121.5 60C127.299 60 132 64.701 132 70.5V90C132 103.255 121.255 114 108 114C105.862 114 103.788 113.72 101.815 113.195C103.618 109.428 104.723 105.271 104.971 100.886L105.024 98.994V70.5C105.024 66.5082 103.607 62.8482 101.248 59.9944ZM72 18C81.9414 18 90 26.0589 90 36C90 45.9411 81.9414 54 72 54C62.0586 54 54 45.9411 54 36C54 26.0589 62.0586 18 72 18ZM111 24C119.284 24 126 30.7157 126 39C126 47.2843 119.284 54 111 54C102.716 54 96 47.2843 96 39C96 30.7157 102.716 24 111 24ZM33 24C41.2843 24 48 30.7157 48 39C48 47.2843 41.2843 54 33 54C24.7157 54 18 47.2843 18 39C18 30.7157 24.7157 24 33 24Z" fill="#0FB8EE"/>
</svg>
